<?xml version="1.0" encoding="utf-8"?>
<!-- Generator: Adobe Illustrator 16.0.0, SVG Export Plug-In . SVG Version: 6.00 Build 0)  -->
<!DOCTYPE svg PUBLIC "-//W3C//DTD SVG 1.1//EN" "http://www.w3.org/Graphics/SVG/1.1/DTD/svg11.dtd">
<svg version="1.1" xmlns="http://www.w3.org/2000/svg" xmlns:xlink="http://www.w3.org/1999/xlink" x="0px" y="0px"
	 width="180.734px" height="42.52px" viewBox="0 0 180.734 42.52" enable-background="new 0 0 180.734 42.52" xml:space="preserve">
<g id="fnd">
</g>
<g id="Capa_1">
	<g>
		<g>
			<g>
				<g>
					<path fill="#004A6E" d="M93.064,30.938c-0.049-0.05-0.074-0.135-0.014-0.209l0.936-1.07c0.049-0.062,0.123-0.062,0.186-0.013
						c0.553,0.443,1.303,0.861,2.189,0.861c0.873,0,1.365-0.406,1.365-0.996c0-0.492-0.295-0.8-1.291-0.935l-0.443-0.062
						c-1.697-0.234-2.645-1.034-2.645-2.511c0-1.538,1.156-2.559,2.965-2.559c1.107,0,2.141,0.333,2.842,0.874
						c0.072,0.049,0.086,0.098,0.023,0.185l-0.75,1.119c-0.049,0.062-0.111,0.073-0.172,0.037C97.615,25.242,97,25.02,96.313,25.02
						c-0.738,0-1.119,0.382-1.119,0.911c0,0.479,0.344,0.787,1.303,0.923l0.443,0.062c1.723,0.233,2.633,1.021,2.633,2.534
						c0,1.513-1.119,2.633-3.285,2.633C94.982,32.082,93.717,31.564,93.064,30.938z"/>
					<path fill="#004A6E" d="M102.656,23.704c0.025-0.074,0.074-0.123,0.16-0.123h1.551c0.086,0,0.135,0.049,0.16,0.123l2.828,8.119
						c0.025,0.074,0,0.123-0.086,0.123h-1.598c-0.086,0-0.137-0.036-0.16-0.123l-0.48-1.464h-2.928l-0.467,1.464
						c-0.025,0.087-0.074,0.123-0.16,0.123h-1.613c-0.086,0-0.109-0.049-0.086-0.123L102.656,23.704z M104.539,28.822l-0.947-2.929
						h-0.037l-0.947,2.929H104.539z"/>
					<path fill="#004A6E" d="M108.018,23.704c0-0.074,0.049-0.123,0.123-0.123h1.477c0.086,0,0.16,0.037,0.209,0.123l2.953,5.265
						h0.061v-5.265c0-0.074,0.049-0.123,0.123-0.123h1.391c0.074,0,0.123,0.049,0.123,0.123v8.119c0,0.074-0.049,0.123-0.123,0.123
						h-1.465c-0.098,0-0.16-0.036-0.209-0.123l-2.965-5.253h-0.061v5.253c0,0.074-0.049,0.123-0.123,0.123h-1.391
						c-0.074,0-0.123-0.049-0.123-0.123V23.704z"/>
					<path fill="#004A6E" d="M117.623,31.946c-0.074,0-0.123-0.049-0.123-0.123v-6.558c0-0.049-0.025-0.073-0.074-0.073h-2.115
						c-0.074,0-0.123-0.05-0.123-0.123v-1.365c0-0.074,0.049-0.123,0.123-0.123h6.188c0.074,0,0.123,0.049,0.123,0.123v1.365
						c0,0.073-0.049,0.123-0.123,0.123h-2.115c-0.051,0-0.074,0.024-0.074,0.073v6.558c0,0.074-0.049,0.123-0.123,0.123H117.623z"/>
					<path fill="#004A6E" d="M122.109,30.052c-0.184-0.578-0.232-1.045-0.232-2.288c0-1.242,0.049-1.71,0.232-2.288
						c0.432-1.354,1.588-2.03,3.051-2.03c1.465,0,2.621,0.677,3.053,2.03c0.184,0.578,0.232,1.046,0.232,2.288
						c0,1.243-0.049,1.71-0.232,2.288c-0.432,1.354-1.588,2.03-3.053,2.03C123.697,32.082,122.541,31.405,122.109,30.052z
						 M126.479,29.56c0.098-0.295,0.135-0.701,0.135-1.796s-0.037-1.501-0.135-1.796c-0.186-0.579-0.629-0.923-1.318-0.923
						c-0.688,0-1.131,0.344-1.314,0.923c-0.1,0.295-0.137,0.701-0.137,1.796s0.037,1.501,0.137,1.796
						c0.184,0.578,0.627,0.923,1.314,0.923C125.85,30.482,126.293,30.138,126.479,29.56z"/>
					<path fill="#004A6E" d="M132.133,23.704c0-0.074,0.049-0.123,0.123-0.123h3.111c1.465,0,2.486,0.627,2.893,1.882
						c0.146,0.468,0.221,0.936,0.221,2.301c0,1.366-0.074,1.833-0.221,2.301c-0.406,1.254-1.428,1.882-2.893,1.882h-3.111
						c-0.074,0-0.123-0.049-0.123-0.123V23.704z M134.014,30.335h0.947c0.838,0,1.342-0.246,1.551-0.923
						c0.086-0.246,0.137-0.566,0.137-1.648c0-1.083-0.051-1.402-0.137-1.648c-0.209-0.677-0.713-0.923-1.551-0.923h-0.947
						c-0.049,0-0.072,0.024-0.072,0.073v4.995C133.941,30.311,133.965,30.335,134.014,30.335z"/>
					<path fill="#004A6E" d="M139.596,30.052c-0.184-0.578-0.232-1.045-0.232-2.288c0-1.242,0.049-1.71,0.232-2.288
						c0.432-1.354,1.588-2.03,3.053-2.03c1.463,0,2.619,0.677,3.051,2.03c0.184,0.578,0.232,1.046,0.232,2.288
						c0,1.243-0.049,1.71-0.232,2.288c-0.432,1.354-1.588,2.03-3.051,2.03C141.184,32.082,140.027,31.405,139.596,30.052z
						 M143.965,29.56c0.098-0.295,0.135-0.701,0.135-1.796s-0.037-1.501-0.135-1.796c-0.186-0.579-0.629-0.923-1.316-0.923
						c-0.689,0-1.133,0.344-1.316,0.923c-0.1,0.295-0.137,0.701-0.137,1.796s0.037,1.501,0.137,1.796
						c0.184,0.578,0.627,0.923,1.316,0.923C143.336,30.482,143.779,30.138,143.965,29.56z"/>
					<path fill="#004A6E" d="M147.012,23.704c0-0.074,0.049-0.123,0.123-0.123h1.465c0.098,0,0.158,0.037,0.195,0.123l2.117,4.772
						h0.049l2.08-4.772c0.035-0.086,0.098-0.123,0.195-0.123h1.439c0.074,0,0.123,0.049,0.123,0.123v8.119
						c0,0.074-0.049,0.123-0.123,0.123h-1.391c-0.072,0-0.123-0.049-0.123-0.123v-4.712h-0.049l-1.549,3.531
						c-0.051,0.11-0.123,0.16-0.234,0.16h-0.85c-0.109,0-0.184-0.05-0.232-0.16l-1.551-3.531h-0.049v4.712
						c0,0.074-0.049,0.123-0.123,0.123h-1.391c-0.074,0-0.123-0.049-0.123-0.123V23.704z"/>
					<path fill="#004A6E" d="M156.1,23.704c0-0.074,0.049-0.123,0.123-0.123h1.563c0.074,0,0.123,0.049,0.123,0.123v8.119
						c0,0.074-0.049,0.123-0.123,0.123h-1.563c-0.074,0-0.123-0.049-0.123-0.123V23.704z"/>
					<path fill="#004A6E" d="M159.199,23.704c0-0.074,0.049-0.123,0.123-0.123h1.477c0.086,0,0.158,0.037,0.209,0.123l2.951,5.265
						h0.063v-5.265c0-0.074,0.049-0.123,0.123-0.123h1.389c0.074,0,0.123,0.049,0.123,0.123v8.119c0,0.074-0.049,0.123-0.123,0.123
						h-1.463c-0.098,0-0.16-0.036-0.209-0.123l-2.965-5.253h-0.063v5.253c0,0.074-0.049,0.123-0.123,0.123h-1.389
						c-0.074,0-0.123-0.049-0.123-0.123V23.704z"/>
					<path fill="#004A6E" d="M166.736,27.764c0-1.242,0.049-1.71,0.234-2.288c0.43-1.354,1.586-2.03,3.076-2.03
						c1.561,0,2.582,0.775,2.977,1.784c0.037,0.074,0.025,0.147-0.049,0.185l-1.316,0.554c-0.086,0.024-0.148,0-0.174-0.062
						c-0.332-0.566-0.75-0.861-1.438-0.861c-0.715,0-1.158,0.356-1.342,0.936c-0.098,0.295-0.135,0.688-0.135,1.783
						s0.037,1.501,0.135,1.796c0.184,0.578,0.641,0.923,1.365,0.923c0.627,0,1.168-0.308,1.342-0.861
						c0.061-0.209,0.098-0.468,0.098-0.824c0-0.049-0.025-0.074-0.074-0.074h-1.131c-0.074,0-0.123-0.049-0.123-0.123v-1.181
						c0-0.073,0.049-0.123,0.123-0.123h2.879c0.074,0,0.123,0.05,0.123,0.123v0.688c0,0.738-0.063,1.428-0.209,1.883
						c-0.418,1.341-1.576,2.092-3.051,2.092c-1.49,0-2.646-0.677-3.076-2.03C166.785,29.474,166.736,29.007,166.736,27.764z"/>
					<path fill="#004A6E" d="M174.398,30.052c-0.186-0.578-0.234-1.045-0.234-2.288c0-1.242,0.049-1.71,0.234-2.288
						c0.43-1.354,1.586-2.03,3.051-2.03c1.463,0,2.619,0.677,3.051,2.03c0.184,0.578,0.234,1.046,0.234,2.288
						c0,1.243-0.051,1.71-0.234,2.288c-0.432,1.354-1.588,2.03-3.051,2.03C175.984,32.082,174.828,31.405,174.398,30.052z
						 M178.766,29.56c0.098-0.295,0.135-0.701,0.135-1.796s-0.037-1.501-0.135-1.796c-0.186-0.579-0.627-0.923-1.316-0.923
						s-1.133,0.344-1.316,0.923c-0.1,0.295-0.137,0.701-0.137,1.796s0.037,1.501,0.137,1.796c0.184,0.578,0.627,0.923,1.316,0.923
						S178.58,30.138,178.766,29.56z"/>
				</g>
				<g>
					<path fill="#004A6E" d="M99.064,16.304h-2.598L94.521,18.7h1.311l-0.061,0.312h-2.727l0.061-0.312h1l6.543-8.056h0.305
						l-0.75,8.056h1.184l-0.061,0.312h-3.799l0.055-0.312h1.219L99.064,16.304z M96.717,15.987h2.348l0.285-3.232l-0.023-0.024
						L96.717,15.987z"/>
					<path fill="#004A6E" d="M105.867,17.523h0.273c-0.537,1.094-1.209,1.641-2.018,1.641c-0.533,0-0.955-0.213-1.27-0.638
						c-0.313-0.425-0.469-0.907-0.469-1.448c0-0.731,0.285-1.416,0.854-2.055c0.568-0.638,1.266-0.957,2.092-0.957
						c0.316,0,0.582,0.088,0.795,0.265c0.215,0.178,0.32,0.375,0.32,0.595c0,0.199-0.059,0.357-0.18,0.476
						c-0.119,0.118-0.258,0.177-0.41,0.177c-0.146,0-0.277-0.05-0.391-0.149c-0.115-0.1-0.172-0.236-0.172-0.411
						c0-0.163,0.064-0.313,0.189-0.451c0.041-0.041,0.061-0.088,0.061-0.141c0-0.057-0.123-0.085-0.371-0.085
						c-0.266,0-0.502,0.111-0.711,0.335s-0.418,0.779-0.627,1.668c-0.211,0.888-0.314,1.448-0.314,1.68
						c0,0.252,0.066,0.46,0.201,0.622c0.133,0.163,0.301,0.243,0.5,0.243C104.785,18.889,105.334,18.435,105.867,17.523z"/>
					<path fill="#004A6E" d="M111.938,14.176l-0.824,3.476c-0.076,0.313-0.115,0.56-0.115,0.738c0,0.166,0.059,0.25,0.178,0.25
						c0.098,0,0.234-0.117,0.414-0.352c0.178-0.233,0.361-0.58,0.549-1.039h0.25c-0.219,0.658-0.479,1.143-0.773,1.451
						c-0.299,0.309-0.584,0.464-0.861,0.464c-0.504,0-0.775-0.376-0.816-1.128h-0.025c-0.361,0.752-0.865,1.128-1.512,1.128
						c-0.398,0-0.74-0.188-1.027-0.562c-0.287-0.373-0.43-0.829-0.43-1.366c0-0.837,0.293-1.574,0.881-2.213
						c0.588-0.638,1.172-0.957,1.754-0.957c0.553,0,0.885,0.303,1,0.908h0.023l0.178-0.799H111.938z M110.4,15.45
						c0-0.317-0.068-0.581-0.203-0.792c-0.137-0.212-0.328-0.317-0.57-0.317c-0.273,0-0.494,0.126-0.666,0.378
						c-0.17,0.252-0.365,0.845-0.588,1.777c-0.221,0.934-0.332,1.517-0.332,1.753c0,0.398,0.154,0.598,0.463,0.598
						c0.225,0,0.453-0.087,0.686-0.263c0.234-0.174,0.494-0.587,0.781-1.237S110.4,16.064,110.4,15.45z"/>
					<path fill="#004A6E" d="M118.672,10.743l-1.621,6.896c-0.078,0.297-0.117,0.546-0.117,0.75c0,0.121,0.064,0.183,0.189,0.183
						c0.26,0,0.559-0.406,0.896-1.22h0.293c-0.451,1.208-0.998,1.812-1.641,1.812c-0.488,0-0.754-0.364-0.799-1.092h-0.023
						c-0.395,0.728-0.883,1.092-1.465,1.092c-0.398,0-0.744-0.195-1.039-0.586c-0.295-0.39-0.441-0.85-0.441-1.378
						c0-0.788,0.283-1.517,0.85-2.183c0.568-0.667,1.162-1.001,1.783-1.001c0.51,0,0.838,0.283,0.988,0.849h0.025l0.859-3.72h-1.146
						l0.074-0.311h0.998C117.805,10.835,118.25,10.804,118.672,10.743z M116.35,15.353c0-0.284-0.068-0.532-0.201-0.744
						c-0.135-0.211-0.33-0.316-0.586-0.316c-0.229,0-0.422,0.097-0.582,0.29c-0.16,0.192-0.365,0.796-0.609,1.811
						c-0.246,1.014-0.369,1.641-0.369,1.881c0,0.155,0.045,0.289,0.133,0.402c0.09,0.114,0.205,0.171,0.342,0.171
						c0.533,0,0.979-0.42,1.336-1.259C116.17,16.748,116.35,16.003,116.35,15.353z"/>
					<path fill="#004A6E" d="M120.26,16.901c-0.166,0.748-0.25,1.193-0.25,1.336c0,0.171,0.064,0.322,0.189,0.454
						c0.127,0.132,0.305,0.197,0.537,0.197c0.744,0,1.371-0.495,1.885-1.487h0.262c-0.273,0.603-0.604,1.046-0.994,1.332
						c-0.391,0.287-0.791,0.431-1.201,0.431c-0.504,0-0.922-0.208-1.254-0.625c-0.33-0.417-0.496-0.899-0.496-1.449
						c0-0.727,0.289-1.413,0.869-2.057c0.578-0.645,1.191-0.967,1.838-0.967c0.418,0,0.742,0.129,0.971,0.387
						c0.227,0.258,0.34,0.542,0.34,0.851c0,0.317-0.154,0.66-0.463,1.027C122.184,16.699,121.439,16.89,120.26,16.901z
						 M120.322,16.627c0.568-0.012,0.947-0.091,1.137-0.234c0.189-0.145,0.342-0.378,0.461-0.698
						c0.117-0.321,0.176-0.582,0.176-0.781c0-0.381-0.17-0.572-0.512-0.572c-0.322,0-0.566,0.146-0.738,0.438
						C120.676,15.072,120.5,15.688,120.322,16.627z"/>
					<path fill="#004A6E" d="M125.855,14.115l-0.322,1.335l0.023,0.024c0.627-0.939,1.291-1.408,1.994-1.408
						c0.313,0,0.557,0.084,0.729,0.253c0.174,0.169,0.26,0.354,0.26,0.558c0,0.041-0.021,0.216-0.063,0.524l0.025,0.024
						c0.613-0.906,1.309-1.359,2.086-1.359c0.252,0,0.467,0.077,0.646,0.231c0.178,0.154,0.268,0.352,0.268,0.592
						c0,0.162-0.035,0.38-0.104,0.652l-0.561,2.28c-0.064,0.297-0.098,0.478-0.098,0.542c0,0.176,0.061,0.263,0.182,0.263
						c0.119,0,0.281-0.105,0.486-0.316c0.205-0.212,0.389-0.562,0.551-1.049h0.287c-0.18,0.609-0.434,1.07-0.766,1.381
						s-0.658,0.466-0.979,0.466c-0.271,0-0.492-0.067-0.662-0.204c-0.168-0.136-0.252-0.338-0.252-0.606
						c0-0.102,0.033-0.285,0.104-0.549l0.584-2.323c0.018-0.028,0.039-0.119,0.068-0.271c0.027-0.152,0.043-0.257,0.043-0.314
						c0-0.081-0.033-0.152-0.098-0.216c-0.066-0.063-0.141-0.095-0.227-0.095c-0.234,0-0.57,0.202-1.002,0.606
						c-0.434,0.404-0.762,1.072-0.984,2.004l-0.445,1.872h-1.166l0.787-3.312c0.102-0.41,0.152-0.677,0.152-0.799
						c0-0.094-0.031-0.181-0.094-0.262c-0.064-0.081-0.145-0.122-0.242-0.122c-0.244,0-0.574,0.225-0.99,0.674
						c-0.416,0.448-0.729,1.11-0.936,1.984l-0.439,1.836h-1.17l1.084-4.482h-1.035l0.061-0.311h0.975
						C125.053,14.219,125.465,14.184,125.855,14.115z"/>
					<path fill="#004A6E" d="M135.42,14.103l-0.914,3.763c-0.066,0.309-0.098,0.508-0.098,0.598c0,0.15,0.074,0.226,0.225,0.226
						c0.188,0,0.404-0.136,0.65-0.406c0.246-0.27,0.486-0.671,0.723-1.204h0.273c-0.531,1.391-1.26,2.086-2.182,2.086
						c-0.537,0-0.805-0.281-0.805-0.842c0-0.171,0.023-0.352,0.072-0.543s0.088-0.347,0.115-0.47l0.678-2.78h-1.152l0.066-0.311
						h0.707C134.361,14.219,134.908,14.18,135.42,14.103z M134.695,11.554c0-0.183,0.066-0.341,0.201-0.473
						c0.133-0.132,0.289-0.198,0.469-0.198c0.188,0,0.346,0.065,0.479,0.195s0.199,0.289,0.199,0.476s-0.068,0.347-0.201,0.479
						c-0.135,0.133-0.293,0.198-0.477,0.198c-0.18,0-0.336-0.065-0.469-0.198C134.762,11.9,134.695,11.74,134.695,11.554z"/>
					<path fill="#004A6E" d="M141.789,14.176l-0.822,3.476c-0.078,0.313-0.117,0.56-0.117,0.738c0,0.166,0.061,0.25,0.178,0.25
						c0.098,0,0.236-0.117,0.414-0.352c0.18-0.233,0.363-0.58,0.549-1.039h0.25c-0.219,0.658-0.477,1.143-0.773,1.451
						s-0.584,0.464-0.859,0.464c-0.506,0-0.777-0.376-0.818-1.128h-0.023c-0.363,0.752-0.867,1.128-1.512,1.128
						c-0.398,0-0.742-0.188-1.029-0.562c-0.285-0.373-0.43-0.829-0.43-1.366c0-0.837,0.295-1.574,0.881-2.213
						c0.588-0.638,1.172-0.957,1.754-0.957c0.553,0,0.887,0.303,1,0.908h0.025l0.176-0.799H141.789z M140.252,15.45
						c0-0.317-0.066-0.581-0.203-0.792c-0.137-0.212-0.326-0.317-0.57-0.317c-0.271,0-0.494,0.126-0.664,0.378
						c-0.172,0.252-0.367,0.845-0.59,1.777c-0.221,0.934-0.332,1.517-0.332,1.753c0,0.398,0.154,0.598,0.465,0.598
						c0.223,0,0.451-0.087,0.686-0.263c0.232-0.174,0.494-0.587,0.779-1.237C140.109,16.696,140.252,16.064,140.252,15.45z"/>
				</g>
				<path fill="#004A6E" d="M34.197,30.609c-0.15-0.146-0.225-0.402-0.037-0.621l2.85-3.158c0.15-0.185,0.375-0.185,0.563-0.038
					c1.689,1.308,3.977,2.543,6.678,2.543c2.664,0,4.162-1.197,4.162-2.942c0-1.452-0.898-2.36-3.939-2.762l-1.35-0.18
					c-5.174-0.69-8.064-3.054-8.064-7.411c0-4.544,3.529-7.561,9.037-7.561c3.379,0,6.531,0.981,8.668,2.58
					c0.225,0.144,0.262,0.29,0.074,0.543l-2.285,3.309c-0.152,0.182-0.34,0.219-0.529,0.109c-1.947-1.236-3.822-1.89-5.928-1.89
					c-2.244,0-3.41,1.126-3.41,2.688c0,1.421,1.051,2.329,3.973,2.727l1.355,0.183c5.25,0.689,8.027,3.013,8.027,7.484
					c0,4.47-3.414,7.773-10.018,7.773C40.047,33.985,36.186,32.461,34.197,30.609"/>
				<path fill="#004A6E" d="M56.818,8.854c0-0.223,0.15-0.375,0.373-0.375h9.492c4.465,0,7.576,1.913,8.813,5.739
					c0.453,1.424,0.678,2.852,0.678,7.017c0,4.163-0.225,5.586-0.678,7.013c-1.236,3.826-4.348,5.737-8.813,5.737h-9.492
					c-0.223,0-0.373-0.147-0.373-0.376V8.854z M62.555,29.072h2.891c2.551,0,4.09-0.751,4.725-2.813
					c0.264-0.749,0.412-1.724,0.412-5.024s-0.148-4.279-0.412-5.027c-0.635-2.063-2.174-2.815-4.725-2.815h-2.891
					c-0.146,0-0.223,0.077-0.223,0.228V28.85C62.332,28.998,62.408,29.072,62.555,29.072"/>
				<path fill="#004A6E" d="M23.41,26.197h-7.912l-2.543,6.86h4.605v0.955H8.533v-0.955h3.438l9.08-24.689h0.576l8.709,24.689h3.342
					v0.955H21.814v-0.955h4.027L23.41,26.197z M15.85,25.245h7.227L19.564,15.21H19.49L15.85,25.245z"/>
				<g>
					<path fill="#004A6E" d="M84.65,42.52H34.049v-0.966h49.633V8.959c0-4.406-3.584-7.992-7.99-7.992H0.967v32.959H0V0h75.682
						c4.949,0,8.969,4.02,8.969,8.959V42.52z"/>
				</g>
			</g>
		</g>
	</g>
</g>
<g id="Capa_3" display="none">
</g>
</svg>
